<?xml version="1.0" standalone="no"?>
<svg xmlns:xlink="http://www.w3.org/1999/xlink" id="wave" style="transform:rotate(0deg); transition: 0.3s" viewBox="0 0 1440 390" version="1.1" xmlns="http://www.w3.org/2000/svg"><defs><linearGradient id="sw-gradient-0" x1="0" x2="0" y1="1" y2="0"><stop stop-color="rgba(255, 249, 234, 1)" offset="0%"/><stop stop-color="rgba(255, 249, 234, 1)" offset="100%"/></linearGradient></defs><path style="transform:translate(0, 0px); opacity:1" fill="url(#sw-gradient-0)" d="M0,39L48,52C96,65,192,91,288,123.5C384,156,480,195,576,208C672,221,768,208,864,195C960,182,1056,169,1152,169C1248,169,1344,182,1440,201.5C1536,221,1632,247,1728,221C1824,195,1920,117,2016,104C2112,91,2208,143,2304,149.5C2400,156,2496,117,2592,104C2688,91,2784,104,2880,143C2976,182,3072,247,3168,240.5C3264,234,3360,156,3456,110.5C3552,65,3648,52,3744,78C3840,104,3936,169,4032,208C4128,247,4224,260,4320,266.5C4416,273,4512,273,4608,234C4704,195,4800,117,4896,97.5C4992,78,5088,117,5184,169C5280,221,5376,286,5472,305.5C5568,325,5664,299,5760,247C5856,195,5952,117,6048,110.5C6144,104,6240,169,6336,169C6432,169,6528,104,6624,78C6720,52,6816,65,6864,71.5L6912,78L6912,390L6864,390C6816,390,6720,390,6624,390C6528,390,6432,390,6336,390C6240,390,6144,390,6048,390C5952,390,5856,390,5760,390C5664,390,5568,390,5472,390C5376,390,5280,390,5184,390C5088,390,4992,390,4896,390C4800,390,4704,390,4608,390C4512,390,4416,390,4320,390C4224,390,4128,390,4032,390C3936,390,3840,390,3744,390C3648,390,3552,390,3456,390C3360,390,3264,390,3168,390C3072,390,2976,390,2880,390C2784,390,2688,390,2592,390C2496,390,2400,390,2304,390C2208,390,2112,390,2016,390C1920,390,1824,390,1728,390C1632,390,1536,390,1440,390C1344,390,1248,390,1152,390C1056,390,960,390,864,390C768,390,672,390,576,390C480,390,384,390,288,390C192,390,96,390,48,390L0,390Z"/></svg>